# xmcd CD database file
#
# Track frame offsets:
#	150
#	12407
#	32025
#	53312
#	64912
#	82890
#	101777
#	117640
#	138850
#	155475
#
# Disc length: 2382 seconds
#
# Revision: 0
# Processed by: cddbd v1.5.1PL0 Copyright (c) Steve Scherf et al.
# Submitted via: CDex 1.51
#
DISCID=7c094c0a
DTITLE=MICADELIC - FUNK JUNK 増刊号
DYEAR=1900
DGENRE=Hip-Hop
TTITLE0=FUNK JUNK
TTITLE1=有視徹戦
TTITLE2=山田デリカル
TTITLE3=skit
TTITLE4=この男、凶暴につき
TTITLE5=JET STREAM ATTACK
TTITLE6=INSOMNIAC
TTITLE7=もっとも危険な遊戯
TTITLE8=2000万パワーズ
TTITLE9=三善的斬
EXTD=
EXTT0=
EXTT1=
EXTT2=
EXTT3=
EXTT4=
EXTT5=
EXTT6=
EXTT7=
EXTT8=
EXTT9=
PLAYORDER=
